{
    "asset" : {
        "generator" : "Khronos glTF Blender I/O v3.4.50",
        "version" : "2.0"
    },
    "scene" : 0,
    "scenes" : [
        {
            "extras" : {
                "SimpleBake_Props" : {}
            },
            "name" : "Scene",
            "nodes" : [
                0
            ]
        }
    ],
    "nodes" : [
        {
            "mesh" : 0,
            "name" : "TwistedTorus"
        }
    ],
    "meshes" : [
        {
            "extras" : {
                "TwistedTorus" : 1,
                "change" : 0,
                "major_radius" : 1.0,
                "minor_radius" : 0.25,
                "major_segments" : 48,
                "minor_segments" : 12,
                "twists" : 1,
                "use_abso" : 0,
                "abso_major_rad" : 1.0,
                "abso_minor_rad" : 0.5
            },
            "name" : "TwistedTorus",
            "primitives" : [
                {
                    "attributes" : {
                        "POSITION" : 0,
                        "TEXCOORD_0" : 1,
                        "NORMAL" : 2
                    },
                    "indices" : 3
                }
            ]
        }
    ],
    "accessors" : [
        {
            "bufferView" : 0,
            "componentType" : 5126,
            "count" : 40350,
            "max" : [
                1.2346274852752686,
                1.0927302837371826,
                1.2346274852752686
            ],
            "min" : [
                -1.2346274852752686,
                -1.0927302837371826,
                -1.2346274852752686
            ],
            "type" : "VEC3"
        },
        {
            "bufferView" : 1,
            "componentType" : 5126,
            "count" : 40350,
            "type" : "VEC2"
        },
        {
            "bufferView" : 2,
            "componentType" : 5126,
            "count" : 40350,
            "type" : "VEC3"
        },
        {
            "bufferView" : 3,
            "componentType" : 5123,
            "count" : 221184,
            "type" : "SCALAR"
        }
    ],
    "bufferViews" : [
        {
            "buffer" : 0,
            "byteLength" : 484200,
            "byteOffset" : 0,
            "target" : 34962
        },
        {
            "buffer" : 0,
            "byteLength" : 322800,
            "byteOffset" : 484200,
            "target" : 34962
        },
        {
            "buffer" : 0,
            "byteLength" : 484200,
            "byteOffset" : 807000,
            "target" : 34962
        },
        {
            "buffer" : 0,
            "byteLength" : 442368,
            "byteOffset" : 1291200,
            "target" : 34963
        }
    ],
    "buffers" : [
        {
            "byteLength" : 1733568,
            "uri" : "data:application/octet-stream;base64,"
        }
    ]
}
