{
    "asset" : {
        "copyright" : "materials",
        "generator" : "Khronos glTF Blender I/O v3.4.50",
        "version" : "2.0"
    },
    "scene" : 0,
    "scenes" : [
        {
            "extras" : {
                "SimpleBake_Props" : {}
            },
            "name" : "Scene",
            "nodes" : [
                0
            ]
        }
    ],
    "nodes" : [
        {
            "mesh" : 0,
            "name" : "Torus"
        }
    ],
    "materials" : [
        {
            "doubleSided" : true,
            "name" : "material.001",
            "normalTexture" : {
                "index" : 0
            },
            "pbrMetallicRoughness" : {
                "baseColorTexture" : {
                    "index" : 1
                },
                "metallicFactor" : 0.2136363387107849,
                "metallicRoughnessTexture" : {
                    "index" : 2
                }
            }
        }
    ],
    "meshes" : [
        {
            "name" : "Torus",
            "primitives" : [
                {
                    "attributes" : {
                        "POSITION" : 0,
                        "TEXCOORD_0" : 1,
                        "NORMAL" : 2,
                        "TANGENT" : 3
                    },
                    "indices" : 4,
                    "material" : 0
                }
            ]
        }
    ],
    "textures" : [
        {
            "sampler" : 0,
            "source" : 0
        },
        {
            "sampler" : 0,
            "source" : 1
        },
        {
            "sampler" : 0,
            "source" : 2
        }
    ],
    "images" : [
        {
            "mimeType" : "image/jpeg",
            "name" : "model_1_normal",
            "uri" : "model_1_normal.jpg"
        },
        {
            "mimeType" : "image/jpeg",
            "name" : "model_1_diffuse",
            "uri" : "model_1_diffuse.jpg"
        },
        {
            "mimeType" : "image/png",
            "name" : "model_1_roughness",
            "uri" : "model_1_roughness.png"
        }
    ],
    "accessors" : [
        {
            "bufferView" : 0,
            "componentType" : 5126,
            "count" : 40875,
            "max" : [
                1.2353026866912842,
                1.160679817199707,
                1.2268754243850708
            ],
            "min" : [
                -1.2353029251098633,
                -1.160679578781128,
                -1.2268755435943604
            ],
            "type" : "VEC3"
        },
        {
            "bufferView" : 1,
            "componentType" : 5126,
            "count" : 40875,
            "type" : "VEC2"
        },
        {
            "bufferView" : 2,
            "componentType" : 5126,
            "count" : 40875,
            "type" : "VEC3"
        },
        {
            "bufferView" : 3,
            "componentType" : 5126,
            "count" : 40875,
            "type" : "VEC4"
        },
        {
            "bufferView" : 4,
            "componentType" : 5123,
            "count" : 221184,
            "type" : "SCALAR"
        }
    ],
    "bufferViews" : [
        {
            "buffer" : 0,
            "byteLength" : 490500,
            "byteOffset" : 0,
            "target" : 34962
        },
        {
            "buffer" : 0,
            "byteLength" : 327000,
            "byteOffset" : 490500,
            "target" : 34962
        },
        {
            "buffer" : 0,
            "byteLength" : 490500,
            "byteOffset" : 817500,
            "target" : 34962
        },
        {
            "buffer" : 0,
            "byteLength" : 654000,
            "byteOffset" : 1308000,
            "target" : 34962
        },
        {
            "buffer" : 0,
            "byteLength" : 442368,
            "byteOffset" : 1962000,
            "target" : 34963
        }
    ],
    "samplers" : [
        {
            "magFilter" : 9729,
            "minFilter" : 9987
        }
    ],
    "buffers" : [
        {
            "byteLength" : 2404368,
            "uri" : "model_1.bin"
        }
    ]
}
